<svg width="27" height="19" viewBox="0 0 27 19" fill="none" xmlns="http://www.w3.org/2000/svg">
<g clip-path="url(#clip0_132_939)">
<path d="M24.75 3.77747H16.875V1.52747H24.75V3.77747ZM26.6836 15.0275C26.5664 15.3907 26.3613 15.7716 26.0684 16.17C25.7754 16.5685 25.3945 16.9318 24.9258 17.2599C24.457 17.588 23.8945 17.8634 23.2383 18.0861C22.582 18.297 21.8203 18.4025 20.9531 18.4025C20.0859 18.4025 19.2715 18.2794 18.5098 18.0333C17.748 17.7872 17.0859 17.4034 16.5234 16.882C15.9609 16.3605 15.5156 15.6954 15.1875 14.8868C14.8594 14.09 14.6953 13.1349 14.6953 12.0216C14.6953 10.92 14.8477 9.95325 15.1523 9.12122C15.4688 8.28918 15.8994 7.59485 16.4443 7.03821C16.9893 6.48157 17.6367 6.06262 18.3867 5.78137C19.1367 5.50012 19.957 5.3595 20.8477 5.3595C21.7148 5.3595 22.4941 5.47668 23.1855 5.71106C23.877 5.95715 24.4775 6.297 24.9873 6.73059C25.4971 7.16418 25.916 7.69153 26.2441 8.31262C26.5605 8.922 26.7773 9.59583 26.8945 10.3341C26.9297 10.6154 26.9561 10.9523 26.9736 11.3448C26.9912 11.7374 27 12.2032 27 12.7423H17.9648C18 13.6447 18.2344 14.3419 18.668 14.8341C19.0898 15.3146 19.5791 15.631 20.1357 15.7833C20.6924 15.9357 21.252 15.9357 21.8145 15.7833C22.377 15.6427 22.8164 15.3907 23.1328 15.0275H26.6836ZM18.0527 10.5275H23.625C23.5664 9.66028 23.2764 9.02747 22.7549 8.62903C22.2334 8.23059 21.5977 8.03137 20.8477 8.03137C20.0156 8.03137 19.3711 8.24231 18.9141 8.66418C18.457 9.08606 18.1699 9.70715 18.0527 10.5275ZM7.27734 18.3849H0V1.54504H7.82227C9.35742 1.56848 10.5352 1.90833 11.3555 2.56458C12.1641 3.23254 12.668 3.99719 12.8672 4.85852C13.0664 5.71985 12.9844 6.57825 12.6211 7.43372C12.2695 8.27747 11.6895 8.90442 10.8809 9.31458C11.8535 9.67786 12.5684 10.3517 13.0254 11.3361C13.4941 12.3204 13.6201 13.337 13.4033 14.3859C13.1865 15.4347 12.5859 16.3634 11.6016 17.172C10.6289 17.9806 9.1875 18.3849 7.27734 18.3849ZM3.375 8.27747H7.40039C8.11523 8.27747 8.66602 8.10168 9.05273 7.75012C9.43945 7.39856 9.63574 7.01184 9.6416 6.58997C9.64746 6.16809 9.44531 5.78137 9.03516 5.42981C8.625 5.07825 7.96289 4.90247 7.04883 4.90247H3.375V8.27747ZM7.18945 11.6525H3.375V15.045H7.13672C7.99219 15.045 8.625 14.8693 9.03516 14.5177C9.44531 14.1661 9.64746 13.7765 9.6416 13.3488C9.63574 12.921 9.42188 12.5314 9 12.1798C8.58984 11.8282 7.98633 11.6525 7.18945 11.6525Z" fill="#2E2A2B"/>
</g>
<defs>
<clipPath id="clip0_132_939">
<rect width="27" height="18" fill="white" transform="matrix(1 0 0 -1 0 18.965)"/>
</clipPath>
</defs>
</svg>
