<svg width="27" height="32" viewBox="0 0 27 32" fill="none" xmlns="http://www.w3.org/2000/svg">
<g clip-path="url(#clip0_132_937)">
<path d="M24.75 11.5575H16.875V9.30746H24.75V11.5575ZM26.6836 22.8075C26.5664 23.1707 26.3613 23.5516 26.0684 23.95C25.7754 24.3485 25.3945 24.7118 24.9258 25.0399C24.457 25.368 23.8945 25.6434 23.2383 25.8661C22.582 26.077 21.8203 26.1825 20.9531 26.1825C20.0859 26.1825 19.2715 26.0594 18.5098 25.8133C17.748 25.5672 17.0859 25.1834 16.5234 24.662C15.9609 24.1405 15.5156 23.4754 15.1875 22.6668C14.8594 21.87 14.6953 20.9149 14.6953 19.8016C14.6953 18.7 14.8477 17.7332 15.1523 16.9012C15.4688 16.0692 15.8994 15.3748 16.4443 14.8182C16.9893 14.2616 17.6367 13.8426 18.3867 13.5614C19.1367 13.2801 19.957 13.1395 20.8477 13.1395C21.7148 13.1395 22.4941 13.2567 23.1855 13.4911C23.877 13.7372 24.4775 14.077 24.9873 14.5106C25.4971 14.9442 25.916 15.4715 26.2441 16.0926C26.5605 16.702 26.7773 17.3758 26.8945 18.1141C26.9297 18.3954 26.9561 18.7323 26.9736 19.1248C26.9912 19.5174 27 19.9832 27 20.5223H17.9648C18 21.4247 18.2344 22.1219 18.668 22.6141C19.0898 23.0946 19.5791 23.411 20.1357 23.5633C20.6924 23.7157 21.252 23.7157 21.8145 23.5633C22.377 23.4227 22.8164 23.1707 23.1328 22.8075H26.6836ZM18.0527 18.3075H23.625C23.5664 17.4403 23.2764 16.8075 22.7549 16.409C22.2334 16.0106 21.5977 15.8114 20.8477 15.8114C20.0156 15.8114 19.3711 16.0223 18.9141 16.4442C18.457 16.8661 18.1699 17.4872 18.0527 18.3075ZM7.27734 26.1649H0V9.32504H7.82227C9.35742 9.34848 10.5352 9.68832 11.3555 10.3446C12.1641 11.0125 12.668 11.7772 12.8672 12.6385C13.0664 13.4998 12.9844 14.3582 12.6211 15.2137C12.2695 16.0575 11.6895 16.6844 10.8809 17.0946C11.8535 17.4579 12.5684 18.1317 13.0254 19.1161C13.4941 20.1004 13.6201 21.117 13.4033 22.1659C13.1865 23.2147 12.5859 24.1434 11.6016 24.952C10.6289 25.7606 9.1875 26.1649 7.27734 26.1649ZM3.375 16.0575H7.40039C8.11523 16.0575 8.66602 15.8817 9.05273 15.5301C9.43945 15.1786 9.63574 14.7918 9.6416 14.37C9.64746 13.9481 9.44531 13.5614 9.03516 13.2098C8.625 12.8582 7.96289 12.6825 7.04883 12.6825H3.375V16.0575ZM7.18945 19.4325H3.375V22.825H7.13672C7.99219 22.825 8.625 22.6493 9.03516 22.2977C9.44531 21.9461 9.64746 21.5565 9.6416 21.1288C9.63574 20.701 9.42188 20.3114 9 19.9598C8.58984 19.6082 7.98633 19.4325 7.18945 19.4325Z" fill="white"/>
</g>
<defs>
<clipPath id="clip0_132_937">
<rect width="27" height="18" fill="white" transform="matrix(1 0 0 -1 0 26.745)"/>
</clipPath>
</defs>
</svg>
