<svg width="19" height="19" viewBox="0 0 19 19" fill="none" xmlns="http://www.w3.org/2000/svg">
<g clip-path="url(#clip0_132_957)">
<path d="M9.64001 1.0177C10.8822 1.0177 12.0482 1.25793 13.1381 1.7384C14.2396 2.20715 15.1976 2.84875 16.0121 3.66321C16.8265 4.47766 17.4681 5.42981 17.9369 6.51965C18.4056 7.6095 18.64 8.77551 18.64 10.0177C18.64 11.1427 18.4467 12.2032 18.0599 13.1993C17.6732 14.2072 17.14 15.1066 16.4603 15.8976C15.7806 16.6886 14.9779 17.3419 14.0521 17.8575C13.1263 18.3849 12.1244 18.7365 11.0463 18.9122V12.6193H13.1381L13.5424 10.0177H13.5072V10.0001H11.0463V8.3302C11.0463 7.97864 11.1517 7.65637 11.3627 7.3634C11.5736 7.07043 11.9545 6.92395 12.5052 6.92395H13.6478V4.70911C13.6478 4.70911 13.6449 4.70911 13.639 4.70911C13.6332 4.70911 13.6244 4.70911 13.6127 4.70911V4.65637C13.6127 4.65637 13.3988 4.62708 12.9711 4.56848C12.5433 4.50989 12.0834 4.48059 11.5912 4.48059C10.5599 4.48059 9.73376 4.78528 9.11267 5.39465C8.49158 6.00403 8.18103 6.87122 8.18103 7.99622V10.0001H5.89587V12.6017H5.94861V12.6193H8.18103V18.8947C7.11462 18.7189 6.11853 18.3673 5.19275 17.84C4.27869 17.3126 3.48474 16.6564 2.81091 15.8712C2.13708 15.0861 1.60681 14.1954 1.22009 13.1993C0.833374 12.2032 0.640015 11.1427 0.640015 10.0177C0.640015 8.77551 0.87439 7.6095 1.34314 6.51965C1.81189 5.42981 2.45349 4.47766 3.26794 3.66321C4.0824 2.84875 5.04041 2.20715 6.14197 1.7384C7.23181 1.25793 8.39783 1.0177 9.64001 1.0177Z" fill="#2E2A2B"/>
</g>
<defs>
<clipPath id="clip0_132_957">
<rect width="18" height="18" fill="white" transform="matrix(1 0 0 -1 0.640015 18.965)"/>
</clipPath>
</defs>
</svg>
