<svg width="19" height="32" viewBox="0 0 19 32" fill="none" xmlns="http://www.w3.org/2000/svg">
<g clip-path="url(#clip0_132_955)">
<path d="M9.64001 8.7977C10.8822 8.7977 12.0482 9.03793 13.1381 9.5184C14.2396 9.98715 15.1976 10.6288 16.0121 11.4432C16.8265 12.2577 17.4681 13.2098 17.9369 14.2997C18.4056 15.3895 18.64 16.5555 18.64 17.7977C18.64 18.9227 18.4467 19.9832 18.0599 20.9793C17.6732 21.9872 17.14 22.8866 16.4603 23.6776C15.7806 24.4686 14.9779 25.1219 14.0521 25.6375C13.1263 26.1649 12.1244 26.5164 11.0463 26.6922V20.3993H13.1381L13.5424 17.7977H13.5072V17.7801H11.0463V16.1102C11.0463 15.7586 11.1517 15.4364 11.3627 15.1434C11.5736 14.8504 11.9545 14.7039 12.5052 14.7039H13.6478V12.4891C13.6478 12.4891 13.6449 12.4891 13.639 12.4891C13.6332 12.4891 13.6244 12.4891 13.6127 12.4891V12.4364C13.6127 12.4364 13.3988 12.4071 12.9711 12.3485C12.5433 12.2899 12.0834 12.2606 11.5912 12.2606C10.5599 12.2606 9.73376 12.5653 9.11267 13.1747C8.49158 13.784 8.18103 14.6512 8.18103 15.7762V17.7801H5.89587V20.3817H5.94861V20.3993H8.18103V26.6747C7.11462 26.4989 6.11853 26.1473 5.19275 25.62C4.27869 25.0926 3.48474 24.4364 2.81091 23.6512C2.13708 22.8661 1.60681 21.9754 1.22009 20.9793C0.833374 19.9832 0.640015 18.9227 0.640015 17.7977C0.640015 16.5555 0.87439 15.3895 1.34314 14.2997C1.81189 13.2098 2.45349 12.2577 3.26794 11.4432C4.0824 10.6288 5.04041 9.98715 6.14197 9.5184C7.23181 9.03793 8.39783 8.7977 9.64001 8.7977Z" fill="white"/>
</g>
<defs>
<clipPath id="clip0_132_955">
<rect width="18" height="18" fill="white" transform="matrix(1 0 0 -1 0.640015 26.745)"/>
</clipPath>
</defs>
</svg>

