<svg width="18" height="19" viewBox="0 0 18 19" fill="none" xmlns="http://www.w3.org/2000/svg">
<g clip-path="url(#clip0_132_933)">
<path d="M9 2.58215C10.207 2.58215 10.9951 2.58508 11.3643 2.59094C11.7334 2.5968 12.1582 2.61145 12.6387 2.63489C13.0723 2.65833 13.418 2.70227 13.6758 2.76672C13.9336 2.83118 14.1445 2.8927 14.3086 2.95129C14.5195 3.03333 14.7041 3.12708 14.8623 3.23254C15.0205 3.33801 15.1816 3.46692 15.3457 3.61926C15.498 3.77161 15.627 3.92981 15.7324 4.09387C15.8379 4.25793 15.9316 4.44543 16.0137 4.65637C16.0723 4.80872 16.1338 5.01379 16.1982 5.27161C16.2627 5.52942 16.3066 5.88098 16.3301 6.32629C16.3418 6.79504 16.3535 7.21692 16.3652 7.59192C16.377 7.96692 16.3828 8.75793 16.3828 9.96497C16.3828 11.1603 16.377 11.9454 16.3652 12.3204C16.3535 12.6954 16.3418 13.1173 16.3301 13.5861C16.3066 14.0314 16.2627 14.3829 16.1982 14.6407C16.1338 14.8986 16.0723 15.1036 16.0137 15.256C15.9316 15.4669 15.8379 15.6544 15.7324 15.8185C15.627 15.9825 15.498 16.1407 15.3457 16.2931C15.1816 16.4572 15.0205 16.5919 14.8623 16.6974C14.7041 16.8029 14.5195 16.8966 14.3086 16.9786C14.1445 17.0372 13.9336 17.0988 13.6758 17.1632C13.418 17.2277 13.0723 17.2657 12.6387 17.2775C12.1582 17.3009 11.7334 17.3156 11.3643 17.3214C10.9951 17.3273 10.207 17.3302 9 17.3302C7.80469 17.3302 7.01953 17.3273 6.64453 17.3214C6.26953 17.3156 5.8418 17.3009 5.36133 17.2775C4.92773 17.2657 4.58203 17.2277 4.32422 17.1632C4.06641 17.0988 3.85547 17.0372 3.69141 16.9786C3.49219 16.8966 3.31055 16.8029 3.14648 16.6974C2.98242 16.5919 2.82422 16.4572 2.67188 16.2931C2.50781 16.1407 2.37305 15.9825 2.26758 15.8185C2.16211 15.6544 2.06836 15.4728 1.98633 15.2736C1.92773 15.1095 1.86621 14.8986 1.80176 14.6407C1.7373 14.3829 1.69922 14.0372 1.6875 13.6036C1.66406 13.1232 1.64941 12.6954 1.64355 12.3204C1.6377 11.9454 1.63477 11.1603 1.63477 9.96497C1.63477 8.75793 1.6377 7.96692 1.64355 7.59192C1.64941 7.21692 1.66406 6.79504 1.6875 6.32629C1.69922 5.8927 1.7373 5.547 1.80176 5.28918C1.86621 5.03137 1.92773 4.82043 1.98633 4.65637C2.06836 4.44543 2.16211 4.26086 2.26758 4.10266C2.37305 3.94446 2.50195 3.78333 2.6543 3.61926C2.81836 3.46692 2.97949 3.33801 3.1377 3.23254C3.2959 3.12708 3.48047 3.03333 3.69141 2.95129C3.85547 2.8927 4.06641 2.83118 4.32422 2.76672C4.58203 2.70227 4.92773 2.65833 5.36133 2.63489C5.8418 2.61145 6.2666 2.5968 6.63574 2.59094C7.00488 2.58508 7.79297 2.58215 9 2.58215ZM9 0.964966C7.78125 0.964966 6.97852 0.967896 6.5918 0.973755C6.20508 0.979614 5.77148 0.994263 5.29102 1.0177C4.81055 1.04114 4.39746 1.08801 4.05176 1.15833C3.70605 1.22864 3.39258 1.32239 3.11133 1.43958C2.80664 1.55676 2.52539 1.69739 2.26758 1.86145C2.00977 2.02551 1.75781 2.23059 1.51172 2.47668C1.26562 2.72278 1.06055 2.97473 0.896484 3.23254C0.732422 3.49036 0.591797 3.77161 0.474609 4.07629C0.357422 4.35754 0.263672 4.67102 0.193359 5.01672C0.123047 5.36243 0.0761719 5.77551 0.0527344 6.25598C0.0292969 6.73645 0.0146484 7.17004 0.00878906 7.55676C0.00292969 7.94348 0 8.74622 0 9.96497C0 11.1837 0.00292969 11.9865 0.00878906 12.3732C0.0146484 12.7599 0.0292969 13.1935 0.0527344 13.674C0.0761719 14.1544 0.123047 14.5675 0.193359 14.9132C0.263672 15.2589 0.357422 15.5724 0.474609 15.8536C0.591797 16.1583 0.732422 16.4396 0.896484 16.6974C1.06055 16.9552 1.26562 17.2072 1.51172 17.4532C1.75781 17.6993 2.00977 17.9044 2.26758 18.0685C2.52539 18.2325 2.80664 18.3732 3.11133 18.4904C3.39258 18.5958 3.70605 18.6866 4.05176 18.7628C4.39746 18.839 4.81055 18.8888 5.29102 18.9122C5.77148 18.9357 6.20508 18.9503 6.5918 18.9562C6.97852 18.962 7.78125 18.965 9 18.965C10.2188 18.965 11.0215 18.962 11.4082 18.9562C11.7949 18.9503 12.2285 18.9357 12.709 18.9122C13.1895 18.8888 13.6025 18.839 13.9482 18.7628C14.2939 18.6866 14.6074 18.5958 14.8887 18.4904C15.1816 18.3732 15.457 18.2325 15.7148 18.0685C15.9727 17.9044 16.2305 17.6993 16.4883 17.4532C16.7344 17.2072 16.9395 16.9552 17.1035 16.6974C17.2676 16.4396 17.4082 16.1583 17.5254 15.8536C17.6309 15.5724 17.7217 15.2589 17.7979 14.9132C17.874 14.5675 17.918 14.1544 17.9297 13.674C17.9531 13.1935 17.9678 12.7599 17.9736 12.3732C17.9795 11.9865 17.9824 11.1837 17.9824 9.96497C17.9824 8.74622 17.9795 7.94348 17.9736 7.55676C17.9678 7.17004 17.9531 6.73645 17.9297 6.25598C17.918 5.77551 17.874 5.36243 17.7979 5.01672C17.7217 4.67102 17.6309 4.35754 17.5254 4.07629C17.4082 3.78333 17.2676 3.505 17.1035 3.24133C16.9395 2.97766 16.7344 2.72278 16.4883 2.47668C16.2422 2.23059 15.9902 2.02551 15.7324 1.86145C15.4746 1.69739 15.1934 1.55676 14.8887 1.43958C14.6074 1.33411 14.2939 1.24329 13.9482 1.16711C13.6025 1.09094 13.1895 1.04114 12.709 1.0177C12.2285 0.994263 11.7949 0.979614 11.4082 0.973755C11.0215 0.967896 10.2188 0.964966 9 0.964966ZM9 5.34192C8.36719 5.34192 7.76953 5.46497 7.20703 5.71106C6.64453 5.94543 6.15234 6.27356 5.73047 6.69543C5.30859 7.11731 4.98047 7.6095 4.74609 8.172C4.5 8.7345 4.37695 9.33215 4.37695 9.96497C4.37695 10.5978 4.5 11.1954 4.74609 11.7579C4.98047 12.3204 5.30859 12.8126 5.73047 13.2345C6.15234 13.6564 6.64453 13.9845 7.20703 14.2189C7.76953 14.465 8.36719 14.588 9 14.588C9.63281 14.588 10.2305 14.465 10.793 14.2189C11.3555 13.9845 11.8477 13.6564 12.2695 13.2345C12.6914 12.8126 13.0195 12.3204 13.2539 11.7579C13.5 11.1954 13.623 10.5978 13.623 9.96497C13.623 9.33215 13.5 8.7345 13.2539 8.172C13.0195 7.6095 12.6914 7.11731 12.2695 6.69543C11.8477 6.27356 11.3555 5.94543 10.793 5.71106C10.2305 5.46497 9.63281 5.34192 9 5.34192ZM9 12.9708C8.16797 12.9708 7.45898 12.6779 6.87305 12.0919C6.28711 11.506 5.99414 10.797 5.99414 9.96497C5.99414 9.13293 6.28711 8.42395 6.87305 7.83801C7.45898 7.25208 8.16797 6.95911 9 6.95911C9.83203 6.95911 10.541 7.25208 11.127 7.83801C11.7129 8.42395 12.0059 9.13293 12.0059 9.96497C12.0059 10.797 11.7129 11.506 11.127 12.0919C10.541 12.6779 9.83203 12.9708 9 12.9708ZM14.8887 5.16614C14.8887 5.45911 14.7832 5.71106 14.5723 5.922C14.3613 6.13293 14.1035 6.2384 13.7988 6.2384C13.5059 6.2384 13.2539 6.13293 13.043 5.922C12.832 5.71106 12.7266 5.45911 12.7266 5.16614C12.7266 4.86145 12.832 4.60364 13.043 4.3927C13.2539 4.18176 13.5059 4.07629 13.7988 4.07629C14.1035 4.07629 14.3613 4.18176 14.5723 4.3927C14.7832 4.60364 14.8887 4.86145 14.8887 5.16614Z" fill="#2E2A2B"/>
</g>
<defs>
<clipPath id="clip0_132_933">
<rect width="18" height="18" fill="white" transform="matrix(1 0 0 -1 0 18.965)"/>
</clipPath>
</defs>
</svg>
