<svg width="18" height="32" viewBox="0 0 18 32" fill="none" xmlns="http://www.w3.org/2000/svg">
<g clip-path="url(#clip0_132_931)">
<path d="M9 10.3622C10.207 10.3622 10.9951 10.3651 11.3643 10.3709C11.7334 10.3768 12.1582 10.3914 12.6387 10.4149C13.0723 10.4383 13.418 10.4823 13.6758 10.5467C13.9336 10.6112 14.1445 10.6727 14.3086 10.7313C14.5195 10.8133 14.7041 10.9071 14.8623 11.0125C15.0205 11.118 15.1816 11.2469 15.3457 11.3993C15.498 11.5516 15.627 11.7098 15.7324 11.8739C15.8379 12.0379 15.9316 12.2254 16.0137 12.4364C16.0723 12.5887 16.1338 12.7938 16.1982 13.0516C16.2627 13.3094 16.3066 13.661 16.3301 14.1063C16.3418 14.575 16.3535 14.9969 16.3652 15.3719C16.377 15.7469 16.3828 16.5379 16.3828 17.745C16.3828 18.9403 16.377 19.7254 16.3652 20.1004C16.3535 20.4754 16.3418 20.8973 16.3301 21.3661C16.3066 21.8114 16.2627 22.1629 16.1982 22.4207C16.1338 22.6786 16.0723 22.8836 16.0137 23.036C15.9316 23.2469 15.8379 23.4344 15.7324 23.5985C15.627 23.7625 15.498 23.9207 15.3457 24.0731C15.1816 24.2372 15.0205 24.3719 14.8623 24.4774C14.7041 24.5829 14.5195 24.6766 14.3086 24.7586C14.1445 24.8172 13.9336 24.8788 13.6758 24.9432C13.418 25.0077 13.0723 25.0457 12.6387 25.0575C12.1582 25.0809 11.7334 25.0956 11.3643 25.1014C10.9951 25.1073 10.207 25.1102 9 25.1102C7.80469 25.1102 7.01953 25.1073 6.64453 25.1014C6.26953 25.0956 5.8418 25.0809 5.36133 25.0575C4.92773 25.0457 4.58203 25.0077 4.32422 24.9432C4.06641 24.8788 3.85547 24.8172 3.69141 24.7586C3.49219 24.6766 3.31055 24.5829 3.14648 24.4774C2.98242 24.3719 2.82422 24.2372 2.67188 24.0731C2.50781 23.9207 2.37305 23.7625 2.26758 23.5985C2.16211 23.4344 2.06836 23.2528 1.98633 23.0536C1.92773 22.8895 1.86621 22.6786 1.80176 22.4207C1.7373 22.1629 1.69922 21.8172 1.6875 21.3836C1.66406 20.9032 1.64941 20.4754 1.64355 20.1004C1.6377 19.7254 1.63477 18.9403 1.63477 17.745C1.63477 16.5379 1.6377 15.7469 1.64355 15.3719C1.64941 14.9969 1.66406 14.575 1.6875 14.1063C1.69922 13.6727 1.7373 13.327 1.80176 13.0692C1.86621 12.8114 1.92773 12.6004 1.98633 12.4364C2.06836 12.2254 2.16211 12.0409 2.26758 11.8827C2.37305 11.7245 2.50195 11.5633 2.6543 11.3993C2.81836 11.2469 2.97949 11.118 3.1377 11.0125C3.2959 10.9071 3.48047 10.8133 3.69141 10.7313C3.85547 10.6727 4.06641 10.6112 4.32422 10.5467C4.58203 10.4823 4.92773 10.4383 5.36133 10.4149C5.8418 10.3914 6.2666 10.3768 6.63574 10.3709C7.00488 10.3651 7.79297 10.3622 9 10.3622ZM9 8.74496C7.78125 8.74496 6.97852 8.74789 6.5918 8.75375C6.20508 8.75961 5.77148 8.77426 5.29102 8.7977C4.81055 8.82114 4.39746 8.86801 4.05176 8.93832C3.70605 9.00864 3.39258 9.10239 3.11133 9.21957C2.80664 9.33676 2.52539 9.47739 2.26758 9.64145C2.00977 9.80551 1.75781 10.0106 1.51172 10.2567C1.26562 10.5028 1.06055 10.7547 0.896484 11.0125C0.732422 11.2704 0.591797 11.5516 0.474609 11.8563C0.357422 12.1375 0.263672 12.451 0.193359 12.7967C0.123047 13.1424 0.0761719 13.5555 0.0527344 14.036C0.0292969 14.5164 0.0146484 14.95 0.00878906 15.3368C0.00292969 15.7235 0 16.5262 0 17.745C0 18.9637 0.00292969 19.7664 0.00878906 20.1532C0.0146484 20.5399 0.0292969 20.9735 0.0527344 21.4539C0.0761719 21.9344 0.123047 22.3475 0.193359 22.6932C0.263672 23.0389 0.357422 23.3524 0.474609 23.6336C0.591797 23.9383 0.732422 24.2196 0.896484 24.4774C1.06055 24.7352 1.26562 24.9872 1.51172 25.2332C1.75781 25.4793 2.00977 25.6844 2.26758 25.8485C2.52539 26.0125 2.80664 26.1532 3.11133 26.2704C3.39258 26.3758 3.70605 26.4666 4.05176 26.5428C4.39746 26.619 4.81055 26.6688 5.29102 26.6922C5.77148 26.7157 6.20508 26.7303 6.5918 26.7362C6.97852 26.742 7.78125 26.745 9 26.745C10.2188 26.745 11.0215 26.742 11.4082 26.7362C11.7949 26.7303 12.2285 26.7157 12.709 26.6922C13.1895 26.6688 13.6025 26.619 13.9482 26.5428C14.2939 26.4666 14.6074 26.3758 14.8887 26.2704C15.1816 26.1532 15.457 26.0125 15.7148 25.8485C15.9727 25.6844 16.2305 25.4793 16.4883 25.2332C16.7344 24.9872 16.9395 24.7352 17.1035 24.4774C17.2676 24.2196 17.4082 23.9383 17.5254 23.6336C17.6309 23.3524 17.7217 23.0389 17.7979 22.6932C17.874 22.3475 17.918 21.9344 17.9297 21.4539C17.9531 20.9735 17.9678 20.5399 17.9736 20.1532C17.9795 19.7664 17.9824 18.9637 17.9824 17.745C17.9824 16.5262 17.9795 15.7235 17.9736 15.3368C17.9678 14.95 17.9531 14.5164 17.9297 14.036C17.918 13.5555 17.874 13.1424 17.7979 12.7967C17.7217 12.451 17.6309 12.1375 17.5254 11.8563C17.4082 11.5633 17.2676 11.285 17.1035 11.0213C16.9395 10.7577 16.7344 10.5028 16.4883 10.2567C16.2422 10.0106 15.9902 9.80551 15.7324 9.64145C15.4746 9.47739 15.1934 9.33676 14.8887 9.21957C14.6074 9.11411 14.2939 9.02328 13.9482 8.94711C13.6025 8.87094 13.1895 8.82114 12.709 8.7977C12.2285 8.77426 11.7949 8.75961 11.4082 8.75375C11.0215 8.74789 10.2188 8.74496 9 8.74496ZM9 13.1219C8.36719 13.1219 7.76953 13.245 7.20703 13.4911C6.64453 13.7254 6.15234 14.0536 5.73047 14.4754C5.30859 14.8973 4.98047 15.3895 4.74609 15.952C4.5 16.5145 4.37695 17.1122 4.37695 17.745C4.37695 18.3778 4.5 18.9754 4.74609 19.5379C4.98047 20.1004 5.30859 20.5926 5.73047 21.0145C6.15234 21.4364 6.64453 21.7645 7.20703 21.9989C7.76953 22.245 8.36719 22.368 9 22.368C9.63281 22.368 10.2305 22.245 10.793 21.9989C11.3555 21.7645 11.8477 21.4364 12.2695 21.0145C12.6914 20.5926 13.0195 20.1004 13.2539 19.5379C13.5 18.9754 13.623 18.3778 13.623 17.745C13.623 17.1122 13.5 16.5145 13.2539 15.952C13.0195 15.3895 12.6914 14.8973 12.2695 14.4754C11.8477 14.0536 11.3555 13.7254 10.793 13.4911C10.2305 13.245 9.63281 13.1219 9 13.1219ZM9 20.7508C8.16797 20.7508 7.45898 20.4579 6.87305 19.8719C6.28711 19.286 5.99414 18.577 5.99414 17.745C5.99414 16.9129 6.28711 16.2039 6.87305 15.618C7.45898 15.0321 8.16797 14.7391 9 14.7391C9.83203 14.7391 10.541 15.0321 11.127 15.618C11.7129 16.2039 12.0059 16.9129 12.0059 17.745C12.0059 18.577 11.7129 19.286 11.127 19.8719C10.541 20.4579 9.83203 20.7508 9 20.7508ZM14.8887 12.9461C14.8887 13.2391 14.7832 13.4911 14.5723 13.702C14.3613 13.9129 14.1035 14.0184 13.7988 14.0184C13.5059 14.0184 13.2539 13.9129 13.043 13.702C12.832 13.4911 12.7266 13.2391 12.7266 12.9461C12.7266 12.6414 12.832 12.3836 13.043 12.1727C13.2539 11.9618 13.5059 11.8563 13.7988 11.8563C14.1035 11.8563 14.3613 11.9618 14.5723 12.1727C14.7832 12.3836 14.8887 12.6414 14.8887 12.9461Z" fill="white"/>
</g>
<defs>
<clipPath id="clip0_132_931">
<rect width="18" height="18" fill="white" transform="matrix(1 0 0 -1 0 26.745)"/>
</clipPath>
</defs>
</svg>
