<svg width="19" height="32" viewBox="0 0 19 32" fill="none" xmlns="http://www.w3.org/2000/svg">
<g clip-path="url(#clip0_132_949)">
<path d="M18.64 8.74496H0.640015V26.745H18.64V8.74496ZM3.82166 23.7391V15.7059H6.30017V23.7391H3.82166ZM3.64587 13.1922C3.64587 12.7938 3.7865 12.4539 4.06775 12.1727C4.349 11.8914 4.68884 11.7508 5.08728 11.7508C5.48572 11.7508 5.82556 11.8914 6.10681 12.1727C6.38806 12.4539 6.52869 12.7938 6.52869 13.1922C6.52869 13.5907 6.38806 13.9305 6.10681 14.2118C5.82556 14.493 5.48572 14.6336 5.08728 14.6336C4.68884 14.6336 4.349 14.493 4.06775 14.2118C3.7865 13.9305 3.64587 13.5907 3.64587 13.1922ZM7.8822 23.6512V15.7059H10.2201V16.7957H10.2728C10.4369 16.4676 10.724 16.1659 11.1342 15.8905C11.5443 15.6151 12.0482 15.4774 12.6459 15.4774C13.9115 15.4774 14.726 15.8465 15.0892 16.5848C15.4525 17.3231 15.6342 18.2313 15.6342 19.3094V23.7039H13.1732V19.784C13.1732 19.3153 13.1176 18.8377 13.0062 18.3514C12.8949 17.8651 12.5111 17.6219 11.8549 17.6219C11.1986 17.6219 10.7855 17.8358 10.6156 18.2635C10.4457 18.6913 10.3607 19.1629 10.3607 19.6786V23.6512H7.8822Z" fill="white"/>
</g>
<defs>
<clipPath id="clip0_132_949">
<rect width="18" height="18" fill="white" transform="matrix(1 0 0 -1 0.640015 26.745)"/>
</clipPath>
</defs>
</svg>
