<svg width="19" height="19" viewBox="0 0 19 19" fill="none" xmlns="http://www.w3.org/2000/svg">
<g clip-path="url(#clip0_132_951)">
<path d="M18.64 0.964966H0.640015V18.965H18.64V0.964966ZM3.82166 15.9591V7.9259H6.30017V15.9591H3.82166ZM3.64587 5.41223C3.64587 5.01379 3.7865 4.67395 4.06775 4.3927C4.349 4.11145 4.68884 3.97083 5.08728 3.97083C5.48572 3.97083 5.82556 4.11145 6.10681 4.3927C6.38806 4.67395 6.52869 5.01379 6.52869 5.41223C6.52869 5.81067 6.38806 6.15051 6.10681 6.43176C5.82556 6.71301 5.48572 6.85364 5.08728 6.85364C4.68884 6.85364 4.349 6.71301 4.06775 6.43176C3.7865 6.15051 3.64587 5.81067 3.64587 5.41223ZM7.8822 15.8712V7.9259H10.2201V9.01575H10.2728C10.4369 8.68762 10.724 8.38586 11.1342 8.11047C11.5443 7.83508 12.0482 7.69739 12.6459 7.69739C13.9115 7.69739 14.726 8.06653 15.0892 8.80481C15.4525 9.54309 15.6342 10.4513 15.6342 11.5294V15.924H13.1732V12.004C13.1732 11.5353 13.1176 11.0577 13.0062 10.5714C12.8949 10.0851 12.5111 9.84192 11.8549 9.84192C11.1986 9.84192 10.7855 10.0558 10.6156 10.4835C10.4457 10.9113 10.3607 11.3829 10.3607 11.8986V15.8712H7.8822Z" fill="#2E2A2B"/>
</g>
<defs>
<clipPath id="clip0_132_951">
<rect width="18" height="18" fill="white" transform="matrix(1 0 0 -1 0.640015 18.965)"/>
</clipPath>
</defs>
</svg>
