<svg width="19" height="19" viewBox="0 0 19 19" fill="none" xmlns="http://www.w3.org/2000/svg">
<g clip-path="url(#clip0_132_964)">
<path d="M18.64 4.93762C18.3119 5.08997 17.9691 5.21594 17.6117 5.31555C17.2543 5.41516 16.8881 5.48254 16.5131 5.5177C16.8998 5.29504 17.2338 5.00793 17.515 4.65637C17.7963 4.30481 18.0072 3.91223 18.1478 3.47864C17.7845 3.68958 17.4066 3.87122 17.014 4.02356C16.6215 4.1759 16.2142 4.29309 15.7924 4.37512C15.4642 4.02356 15.0658 3.74231 14.597 3.53137C14.1283 3.32043 13.6302 3.21497 13.1029 3.21497C12.599 3.21497 12.1185 3.30872 11.6615 3.49622C11.2162 3.69543 10.8265 3.96204 10.4926 4.29602C10.1586 4.63 9.89783 5.01965 9.71033 5.46497C9.51111 5.91028 9.4115 6.39075 9.4115 6.90637C9.4115 7.047 9.42029 7.18762 9.43787 7.32825C9.45544 7.46887 9.47595 7.6095 9.49939 7.75012C8.73767 7.71497 7.99939 7.59778 7.28455 7.39856C6.55798 7.19934 5.87244 6.93274 5.22791 6.59875C4.58337 6.26477 3.97986 5.86926 3.41736 5.41223C2.85486 4.9552 2.34509 4.44543 1.88806 3.88293C1.73572 4.15247 1.6156 4.44543 1.52771 4.76184C1.43982 5.07825 1.39587 5.40637 1.39587 5.74622C1.39587 6.37903 1.54529 6.96497 1.84412 7.50403C2.14294 8.04309 2.53845 8.48254 3.03064 8.82239C2.73767 8.81067 2.44763 8.76379 2.16052 8.68176C1.87341 8.59973 1.60681 8.4884 1.36072 8.34778C1.36072 8.3595 1.36072 8.36829 1.36072 8.37415C1.36072 8.38 1.36072 8.38879 1.36072 8.40051C1.36072 9.29114 1.6449 10.0763 2.21326 10.756C2.78162 11.4357 3.48767 11.8575 4.33142 12.0216C4.17908 12.0685 4.02087 12.1007 3.85681 12.1183C3.69275 12.1359 3.52283 12.1447 3.34705 12.1447C3.22986 12.1447 3.1156 12.1388 3.00427 12.1271C2.89294 12.1154 2.77869 12.1036 2.6615 12.0919C2.89587 12.8185 3.32654 13.422 3.95349 13.9025C4.58044 14.3829 5.29822 14.6349 6.10681 14.6583C5.474 15.1505 4.76794 15.5372 3.98865 15.8185C3.20935 16.0997 2.38611 16.2404 1.51892 16.2404C1.36658 16.2404 1.21716 16.2345 1.07068 16.2228C0.924194 16.2111 0.78064 16.1993 0.640015 16.1876C1.05017 16.4454 1.47791 16.6798 1.92322 16.8907C2.36853 17.09 2.82849 17.2599 3.3031 17.4005C3.77771 17.5411 4.26697 17.6525 4.77087 17.7345C5.27478 17.8048 5.78455 17.84 6.30017 17.84C7.99939 17.84 9.49939 17.5236 10.8002 16.8907C12.1127 16.2462 13.2142 15.42 14.1049 14.4122C14.9955 13.4044 15.6693 12.2794 16.1263 11.0372C16.5834 9.78333 16.8119 8.547 16.8119 7.32825C16.8119 7.24622 16.809 7.16711 16.8031 7.09094C16.7972 7.01477 16.7943 6.93567 16.7943 6.85364C17.1576 6.59583 17.4945 6.30579 17.8051 5.98352C18.1156 5.66125 18.3939 5.31262 18.64 4.93762Z" fill="#2E2A2B"/>
</g>
<defs>
<clipPath id="clip0_132_964">
<rect width="18" height="18" fill="white" transform="matrix(1 0 0 -1 0.640015 18.965)"/>
</clipPath>
</defs>
</svg>
