<svg width="19" height="32" viewBox="0 0 19 32" fill="none" xmlns="http://www.w3.org/2000/svg">
<g clip-path="url(#clip0_132_961)">
<path d="M18.64 12.7176C18.3119 12.87 17.9691 12.9959 17.6117 13.0956C17.2543 13.1952 16.8881 13.2625 16.5131 13.2977C16.8998 13.075 17.2338 12.7879 17.515 12.4364C17.7963 12.0848 18.0072 11.6922 18.1478 11.2586C17.7845 11.4696 17.4066 11.6512 17.014 11.8036C16.6215 11.9559 16.2142 12.0731 15.7924 12.1551C15.4642 11.8036 15.0658 11.5223 14.597 11.3114C14.1283 11.1004 13.6302 10.995 13.1029 10.995C12.599 10.995 12.1185 11.0887 11.6615 11.2762C11.2162 11.4754 10.8265 11.742 10.4926 12.076C10.1586 12.41 9.89783 12.7997 9.71033 13.245C9.51111 13.6903 9.4115 14.1707 9.4115 14.6864C9.4115 14.827 9.42029 14.9676 9.43787 15.1082C9.45544 15.2489 9.47595 15.3895 9.49939 15.5301C8.73767 15.495 7.99939 15.3778 7.28455 15.1786C6.55798 14.9793 5.87244 14.7127 5.22791 14.3788C4.58337 14.0448 3.97986 13.6493 3.41736 13.1922C2.85486 12.7352 2.34509 12.2254 1.88806 11.6629C1.73572 11.9325 1.6156 12.2254 1.52771 12.5418C1.43982 12.8582 1.39587 13.1864 1.39587 13.5262C1.39587 14.159 1.54529 14.745 1.84412 15.284C2.14294 15.8231 2.53845 16.2625 3.03064 16.6024C2.73767 16.5907 2.44763 16.5438 2.16052 16.4618C1.87341 16.3797 1.60681 16.2684 1.36072 16.1278C1.36072 16.1395 1.36072 16.1483 1.36072 16.1541C1.36072 16.16 1.36072 16.1688 1.36072 16.1805C1.36072 17.0711 1.6449 17.8563 2.21326 18.536C2.78162 19.2157 3.48767 19.6375 4.33142 19.8016C4.17908 19.8485 4.02087 19.8807 3.85681 19.8983C3.69275 19.9159 3.52283 19.9247 3.34705 19.9247C3.22986 19.9247 3.1156 19.9188 3.00427 19.9071C2.89294 19.8954 2.77869 19.8836 2.6615 19.8719C2.89587 20.5985 3.32654 21.202 3.95349 21.6825C4.58044 22.1629 5.29822 22.4149 6.10681 22.4383C5.474 22.9305 4.76794 23.3172 3.98865 23.5985C3.20935 23.8797 2.38611 24.0204 1.51892 24.0204C1.36658 24.0204 1.21716 24.0145 1.07068 24.0028C0.924194 23.9911 0.78064 23.9793 0.640015 23.9676C1.05017 24.2254 1.47791 24.4598 1.92322 24.6707C2.36853 24.87 2.82849 25.0399 3.3031 25.1805C3.77771 25.3211 4.26697 25.4325 4.77087 25.5145C5.27478 25.5848 5.78455 25.62 6.30017 25.62C7.99939 25.62 9.49939 25.3036 10.8002 24.6707C12.1127 24.0262 13.2142 23.2 14.1049 22.1922C14.9955 21.1844 15.6693 20.0594 16.1263 18.8172C16.5834 17.5633 16.8119 16.327 16.8119 15.1082C16.8119 15.0262 16.809 14.9471 16.8031 14.8709C16.7972 14.7948 16.7943 14.7157 16.7943 14.6336C17.1576 14.3758 17.4945 14.0858 17.8051 13.7635C18.1156 13.4413 18.3939 13.0926 18.64 12.7176Z" fill="white"/>
</g>
<defs>
<clipPath id="clip0_132_961">
<rect width="18" height="18" fill="white" transform="matrix(1 0 0 -1 0.640015 26.745)"/>
</clipPath>
</defs>
</svg>
