<svg width="20" height="32" viewBox="0 0 20 32" fill="none" xmlns="http://www.w3.org/2000/svg">
<g clip-path="url(#clip0_132_943)">
<path d="M19.6373 13.1747C19.6959 11.8973 19.485 10.9334 19.0045 10.2831C18.524 9.63266 17.7799 9.28989 16.7721 9.25473C16.0924 9.23129 15.4713 9.31332 14.9088 9.50082C14.3346 9.67661 13.816 9.95786 13.3531 10.3446C12.8903 10.7313 12.483 11.2176 12.1315 11.8036C11.7799 12.3895 11.4869 13.075 11.2526 13.8602C11.4987 13.7547 11.7418 13.6756 11.9821 13.6229C12.2223 13.5702 12.4596 13.5438 12.694 13.5438C13.1979 13.5438 13.5612 13.6844 13.7838 13.9657C14.0065 14.2469 14.0885 14.6688 14.0299 15.2313C13.9948 15.5711 13.8658 15.9872 13.6432 16.4793C13.4205 16.9715 13.1041 17.5399 12.694 18.1844C12.2838 18.8407 11.9264 19.3299 11.6217 19.6522C11.317 19.9745 11.0592 20.1356 10.8483 20.1356C10.5787 20.1356 10.3239 19.8866 10.0836 19.3885C9.84338 18.8905 9.61194 18.1375 9.38928 17.1297C9.31897 16.8368 9.21643 16.3153 9.08167 15.5653C8.9469 14.8153 8.78577 13.8368 8.59827 12.6297C8.42249 11.5164 8.10022 10.6991 7.63147 10.1776C7.16272 9.6561 6.54749 9.43051 5.78577 9.50082C5.45764 9.53598 5.05042 9.70004 4.56409 9.99301C4.07776 10.286 3.51233 10.7079 2.8678 11.2586C2.39905 11.6922 1.92444 12.12 1.44397 12.5418C0.963501 12.9637 0.483032 13.3914 0.00256348 13.825L0.934204 15.0028C1.3678 14.6981 1.7135 14.4696 1.97131 14.3172C2.22913 14.1649 2.39319 14.0887 2.4635 14.0887C2.80334 14.0887 3.13147 14.3524 3.44788 14.8797C3.76428 15.4071 4.06897 16.1981 4.36194 17.2528C4.49084 17.7332 4.61975 18.2196 4.74866 18.7118C4.88928 19.1922 5.02405 19.6756 5.15295 20.162C5.28186 20.6483 5.41077 21.1317 5.53967 21.6122C5.6803 22.0926 5.81506 22.5789 5.94397 23.0711C6.34241 24.1258 6.78186 24.9168 7.26233 25.4442C7.7428 25.9715 8.27014 26.2352 8.84436 26.2352C9.31311 26.2352 9.79944 26.1297 10.3033 25.9188C10.819 25.6961 11.361 25.368 11.9293 24.9344C12.4977 24.5008 13.0865 23.9618 13.6959 23.3172C14.317 22.661 14.9615 21.8993 15.6295 21.0321C16.274 20.2 16.8424 19.4149 17.3346 18.6766C17.8151 17.9266 18.2223 17.2264 18.5563 16.576C18.8903 15.9256 19.151 15.3192 19.3385 14.7567C19.5143 14.1825 19.6139 13.6551 19.6373 13.1747Z" fill="white"/>
</g>
<defs>
<clipPath id="clip0_132_943">
<rect width="19.64" height="18" fill="white" transform="matrix(1 0 0 -1 0 26.745)"/>
</clipPath>
</defs>
</svg>
