<svg width="20" height="19" viewBox="0 0 20 19" fill="none" xmlns="http://www.w3.org/2000/svg">
<g clip-path="url(#clip0_132_945)">
<path d="M19.6373 5.39465C19.6959 4.11731 19.485 3.15344 19.0045 2.50305C18.524 1.85266 17.7799 1.50989 16.7721 1.47473C16.0924 1.45129 15.4713 1.53333 14.9088 1.72083C14.3346 1.89661 13.816 2.17786 13.3531 2.56458C12.8903 2.95129 12.483 3.43762 12.1315 4.02356C11.7799 4.6095 11.4869 5.29504 11.2526 6.0802C11.4987 5.97473 11.7418 5.89563 11.9821 5.8429C12.2223 5.79016 12.4596 5.76379 12.694 5.76379C13.1979 5.76379 13.5612 5.90442 13.7838 6.18567C14.0065 6.46692 14.0885 6.88879 14.0299 7.45129C13.9948 7.79114 13.8658 8.20715 13.6432 8.69934C13.4205 9.19153 13.1041 9.75989 12.694 10.4044C12.2838 11.0607 11.9264 11.5499 11.6217 11.8722C11.317 12.1945 11.0592 12.3556 10.8483 12.3556C10.5787 12.3556 10.3239 12.1066 10.0836 11.6085C9.84338 11.1105 9.61194 10.3575 9.38928 9.34973C9.31897 9.05676 9.21643 8.53528 9.08167 7.78528C8.9469 7.03528 8.78577 6.05676 8.59827 4.84973C8.42249 3.73645 8.10022 2.91907 7.63147 2.39758C7.16272 1.8761 6.54749 1.65051 5.78577 1.72083C5.45764 1.75598 5.05042 1.92004 4.56409 2.21301C4.07776 2.50598 3.51233 2.92786 2.8678 3.47864C2.39905 3.91223 1.92444 4.33997 1.44397 4.76184C0.963501 5.18372 0.483032 5.61145 0.00256348 6.04504L0.934204 7.22278C1.3678 6.91809 1.7135 6.68958 1.97131 6.53723C2.22913 6.38489 2.39319 6.30872 2.4635 6.30872C2.80334 6.30872 3.13147 6.57239 3.44788 7.09973C3.76428 7.62708 4.06897 8.41809 4.36194 9.47278C4.49084 9.95325 4.61975 10.4396 4.74866 10.9318C4.88928 11.4122 5.02405 11.8956 5.15295 12.382C5.28186 12.8683 5.41077 13.3517 5.53967 13.8322C5.6803 14.3126 5.81506 14.799 5.94397 15.2911C6.34241 16.3458 6.78186 17.1368 7.26233 17.6642C7.7428 18.1915 8.27014 18.4552 8.84436 18.4552C9.31311 18.4552 9.79944 18.3497 10.3033 18.1388C10.819 17.9161 11.361 17.588 11.9293 17.1544C12.4977 16.7208 13.0865 16.1818 13.6959 15.5372C14.317 14.881 14.9615 14.1193 15.6295 13.2521C16.274 12.42 16.8424 11.6349 17.3346 10.8966C17.8151 10.1466 18.2223 9.44641 18.5563 8.79602C18.8903 8.14563 19.151 7.53918 19.3385 6.97668C19.5143 6.40247 19.6139 5.87512 19.6373 5.39465Z" fill="#2E2A2B"/>
</g>
<defs>
<clipPath id="clip0_132_945">
<rect width="19.64" height="18" fill="white" transform="matrix(1 0 0 -1 0 18.965)"/>
</clipPath>
</defs>
</svg>
